<svg width="60" height="60" viewBox="0 0 60 60" fill="none" xmlns="http://www.w3.org/2000/svg">
<path d="M30.0009 17.8279C28.4023 17.8279 26.8193 18.1428 25.3424 18.7545C23.8655 19.3663 22.5235 20.263 21.3931 21.3933C20.2627 22.5237 19.366 23.8657 18.7543 25.3426C18.1425 26.8196 17.8276 28.4025 17.8276 30.0011C17.8276 31.5998 18.1425 33.1827 18.7543 34.6596C19.366 36.1366 20.2627 37.4785 21.3931 38.6089C22.5235 39.7393 23.8655 40.636 25.3424 41.2478C26.8193 41.8595 28.4023 42.1744 30.0009 42.1744C33.2294 42.1744 36.3258 40.8919 38.6087 38.6089C40.8916 36.326 42.1742 33.2297 42.1742 30.0011C42.1742 26.7726 40.8916 23.6763 38.6087 21.3933C36.3258 19.1104 33.2294 17.8279 30.0009 17.8279ZM21.5779 30.0011C21.5779 27.7672 22.4653 25.6248 24.0449 24.0452C25.6245 22.4655 27.767 21.5781 30.0009 21.5781C32.2348 21.5781 34.3773 22.4655 35.9569 24.0452C37.5365 25.6248 38.4239 27.7672 38.4239 30.0011C38.4239 32.2351 37.5365 34.3775 35.9569 35.9571C34.3773 37.5367 32.2348 38.4242 30.0009 38.4242C27.767 38.4242 25.6245 37.5367 24.0449 35.9571C22.4653 34.3775 21.5779 32.2351 21.5779 30.0011Z" fill="#02ADDB"/>
<path d="M36.7354 5.03469C34.759 -1.67823 25.241 -1.67823 23.2646 5.03469L22.9121 6.23101C22.774 6.69961 22.5329 7.13139 22.2063 7.49469C21.8798 7.85799 21.476 8.1436 21.0247 8.33059C20.5734 8.51758 20.086 8.60121 19.5982 8.57535C19.1104 8.54949 18.6345 8.4148 18.2055 8.18114L17.1104 7.5811C10.9601 4.23589 4.23589 10.9638 7.58485 17.1104L8.18114 18.2055C8.4148 18.6345 8.54949 19.1104 8.57535 19.5982C8.60121 20.086 8.51758 20.5734 8.33059 21.0247C8.1436 21.476 7.85799 21.8798 7.49469 22.2063C7.13139 22.5329 6.69961 22.774 6.23101 22.9121L5.03469 23.2646C-1.67823 25.241 -1.67823 34.759 5.03469 36.7354L6.23101 37.0879C6.69961 37.226 7.13139 37.4671 7.49469 37.7937C7.85799 38.1202 8.1436 38.524 8.33059 38.9753C8.51758 39.4266 8.60121 39.914 8.57535 40.4018C8.54949 40.8896 8.4148 41.3655 8.18114 41.7945L7.5811 42.8896C4.23589 49.0399 10.9601 55.7679 17.1104 52.4152L18.2055 51.8189C18.6345 51.5852 19.1104 51.4505 19.5982 51.4246C20.086 51.3988 20.5734 51.4824 21.0247 51.6694C21.476 51.8564 21.8798 52.142 22.2063 52.5053C22.5329 52.8686 22.774 53.3004 22.9121 53.769L23.2646 54.9653C25.241 61.6782 34.759 61.6782 36.7354 54.9653L37.0879 53.769C37.226 53.3004 37.4671 52.8686 37.7937 52.5053C38.1202 52.142 38.524 51.8564 38.9753 51.6694C39.4266 51.4824 39.914 51.3988 40.4018 51.4246C40.8896 51.4505 41.3655 51.5852 41.7945 51.8189L42.8896 52.4189C49.0399 55.7679 55.7679 49.0362 52.4152 42.8896L51.8189 41.7945C51.5852 41.3655 51.4505 40.8896 51.4246 40.4018C51.3988 39.914 51.4824 39.4266 51.6694 38.9753C51.8564 38.524 52.142 38.1202 52.5053 37.7937C52.8686 37.4671 53.3004 37.226 53.769 37.0879L54.9653 36.7354C61.6782 34.759 61.6782 25.241 54.9653 23.2646L53.769 22.9121C53.3004 22.774 52.8686 22.5329 52.5053 22.2063C52.142 21.8798 51.8564 21.476 51.6694 21.0247C51.4824 20.5734 51.3988 20.086 51.4246 19.5982C51.4505 19.1104 51.5852 18.6345 51.8189 18.2055L52.4189 17.1104C55.7679 10.9601 49.0362 4.23589 42.8896 7.58485L41.7945 8.18114C41.3655 8.4148 40.8896 8.54949 40.4018 8.57535C39.914 8.60121 39.4266 8.51758 38.9753 8.33059C38.524 8.1436 38.1202 7.85799 37.7937 7.49469C37.4671 7.13139 37.226 6.69961 37.0879 6.23101L36.7354 5.03469ZM26.8611 6.09601C27.7836 2.96456 32.2164 2.96456 33.1389 6.09601L33.4915 7.29233C33.7878 8.29771 34.3054 9.22403 35.0063 10.0034C35.7072 10.7827 36.5736 11.3953 37.542 11.7963C38.5104 12.1972 39.5563 12.3764 40.603 12.3206C41.6496 12.2648 42.6705 11.9755 43.5908 11.4738L44.6822 10.8738C47.5473 9.31746 50.6825 12.4489 49.1224 15.3178L48.5262 16.4129C48.0253 17.3333 47.7367 18.3541 47.6815 19.4005C47.6263 20.447 47.8059 21.4925 48.2072 22.4605C48.6085 23.4285 49.2213 24.2944 50.0006 24.9948C50.78 25.6953 51.7062 26.2125 52.7114 26.5085L53.904 26.8611C57.0354 27.7836 57.0354 32.2164 53.904 33.1389L52.7077 33.4915C51.7023 33.7878 50.776 34.3054 49.9966 35.0063C49.2173 35.7072 48.6047 36.5736 48.2037 37.542C47.8027 38.5104 47.6236 39.5563 47.6794 40.603C47.7352 41.6496 48.0245 42.6705 48.5262 43.5908L49.1262 44.6822C50.6825 47.5473 47.5511 50.6825 44.6822 49.1224L43.5908 48.5262C42.6703 48.0246 41.6491 47.7354 40.6023 47.6798C39.5554 47.6243 38.5094 47.8037 37.5409 48.2051C36.5724 48.6064 35.7061 49.2195 35.0054 49.9992C34.3047 50.779 33.7874 51.7057 33.4915 52.7114L33.1389 53.904C32.2164 57.0354 27.7836 57.0354 26.8611 53.904L26.5085 52.7077C26.2121 51.7028 25.6946 50.777 24.9939 49.998C24.2933 49.2191 23.4273 48.6067 22.4594 48.2058C21.4914 47.8049 20.4461 47.6256 19.3998 47.681C18.3536 47.7365 17.3331 48.0252 16.4129 48.5262L15.3178 49.1262C12.4527 50.6825 9.31746 47.5511 10.8776 44.6822L11.4738 43.5908C11.9762 42.6704 12.2661 41.6492 12.3222 40.602C12.3784 39.5549 12.1994 38.5085 11.7984 37.5396C11.3974 36.5707 10.7845 35.7039 10.0048 35.0027C9.22506 34.3016 8.29824 33.7839 7.29233 33.4877L6.09601 33.1352C2.96456 32.2126 2.96456 27.7799 6.09601 26.8573L7.29233 26.5048C8.29667 26.2082 9.22197 25.6908 10.0005 24.9904C10.7791 24.29 11.3912 23.4244 11.7921 22.457C12.1929 21.4895 12.3724 20.4447 12.3173 19.3989C12.2623 18.3531 11.9741 17.3329 11.4738 16.4129L10.8738 15.3178C9.31746 12.4527 12.4489 9.31746 15.3178 10.8776L16.4129 11.4738C17.3331 11.9748 18.3536 12.2635 19.3998 12.319C20.4461 12.3744 21.4914 12.1951 22.4594 11.7942C23.4273 11.3933 24.2933 10.7809 24.9939 10.002C25.6946 9.223 26.2121 8.29719 26.5085 7.29233L26.8611 6.09601Z" fill="#02ADDB"/>
</svg>
